<svg width="75" height="18" viewBox="0 0 75 18" fill="none" xmlns="http://www.w3.org/2000/svg">
<path d="M14.7548 0.364V13H11.6768V5.098L8.94081 13H6.27681L3.52281 5.08V13H0.444813V0.364H4.20681L7.64481 9.166L11.0108 0.364H14.7548ZM19.2024 2.956L21.6144 9.112L23.8644 2.956H27.2664L21.0024 17.788H17.6184L19.9764 12.622L15.7644 2.956H19.2024ZM34.9701 10.642H39.0741V13H31.8921V0.274H34.9701V10.642ZM45.1858 2.83C46.1818 2.83 47.0698 3.04 47.8498 3.46C48.6418 3.868 49.2598 4.462 49.7038 5.242C50.1598 6.022 50.3878 6.934 50.3878 7.978C50.3878 9.022 50.1598 9.934 49.7038 10.714C49.2598 11.494 48.6418 12.094 47.8498 12.514C47.0698 12.922 46.1818 13.126 45.1858 13.126C44.1898 13.126 43.2958 12.922 42.5038 12.514C41.7118 12.094 41.0878 11.494 40.6318 10.714C40.1878 9.934 39.9658 9.022 39.9658 7.978C39.9658 6.934 40.1878 6.022 40.6318 5.242C41.0878 4.462 41.7118 3.868 42.5038 3.46C43.2958 3.04 44.1898 2.83 45.1858 2.83ZM45.1858 5.494C44.5978 5.494 44.0998 5.71 43.6918 6.142C43.2958 6.562 43.0978 7.174 43.0978 7.978C43.0978 8.782 43.2958 9.394 43.6918 9.814C44.0998 10.234 44.5978 10.444 45.1858 10.444C45.7738 10.444 46.2658 10.234 46.6618 9.814C47.0578 9.394 47.2558 8.782 47.2558 7.978C47.2558 7.174 47.0578 6.562 46.6618 6.142C46.2658 5.71 45.7738 5.494 45.1858 5.494ZM55.7999 2.83C56.5679 2.83 57.2279 3.004 57.7799 3.352C58.3319 3.7 58.7399 4.174 59.0039 4.774V2.956H62.0639V12.946C62.0639 13.882 61.8839 14.722 61.5239 15.466C61.1639 16.222 60.6119 16.822 59.8679 17.266C59.1239 17.71 58.1999 17.932 57.0959 17.932C55.5839 17.932 54.3719 17.572 53.4599 16.852C52.5599 16.144 52.0199 15.178 51.8399 13.954H54.8819C54.9779 14.362 55.1939 14.68 55.5299 14.908C55.8779 15.136 56.3279 15.25 56.8799 15.25C57.5159 15.25 58.0259 15.064 58.4099 14.692C58.8059 14.332 59.0039 13.75 59.0039 12.946V11.182C58.7399 11.782 58.3319 12.256 57.7799 12.604C57.2279 12.952 56.5679 13.126 55.7999 13.126C54.9719 13.126 54.2279 12.922 53.5679 12.514C52.9199 12.094 52.4039 11.494 52.0199 10.714C51.6479 9.934 51.4619 9.022 51.4619 7.978C51.4619 6.922 51.6479 6.01 52.0199 5.242C52.4039 4.462 52.9199 3.868 53.5679 3.46C54.2279 3.04 54.9719 2.83 55.7999 2.83ZM56.7899 5.53C56.1299 5.53 55.5959 5.746 55.1879 6.178C54.7919 6.61 54.5939 7.21 54.5939 7.978C54.5939 8.746 54.7919 9.346 55.1879 9.778C55.5959 10.21 56.1299 10.426 56.7899 10.426C57.4379 10.426 57.9659 10.204 58.3739 9.76C58.7939 9.316 59.0039 8.722 59.0039 7.978C59.0039 7.222 58.7939 6.628 58.3739 6.196C57.9659 5.752 57.4379 5.53 56.7899 5.53ZM68.8811 2.83C69.8771 2.83 70.7651 3.04 71.5451 3.46C72.3371 3.868 72.9551 4.462 73.3991 5.242C73.8551 6.022 74.0831 6.934 74.0831 7.978C74.0831 9.022 73.8551 9.934 73.3991 10.714C72.9551 11.494 72.3371 12.094 71.5451 12.514C70.7651 12.922 69.8771 13.126 68.8811 13.126C67.8851 13.126 66.9911 12.922 66.1991 12.514C65.4071 12.094 64.7831 11.494 64.3271 10.714C63.8831 9.934 63.6611 9.022 63.6611 7.978C63.6611 6.934 63.8831 6.022 64.3271 5.242C64.7831 4.462 65.4071 3.868 66.1991 3.46C66.9911 3.04 67.8851 2.83 68.8811 2.83ZM68.8811 5.494C68.2931 5.494 67.7951 5.71 67.3871 6.142C66.9911 6.562 66.7931 7.174 66.7931 7.978C66.7931 8.782 66.9911 9.394 67.3871 9.814C67.7951 10.234 68.2931 10.444 68.8811 10.444C69.4691 10.444 69.9611 10.234 70.3571 9.814C70.7531 9.394 70.9511 8.782 70.9511 7.978C70.9511 7.174 70.7531 6.562 70.3571 6.142C69.9611 5.71 69.4691 5.494 68.8811 5.494Z" fill="#6070FF"/>
</svg>
